<?xml version="1.0" encoding="UTF-8"?>
<svg xmlns="http://www.w3.org/2000/svg" xmlns:xlink="http://www.w3.org/1999/xlink" width="600pt" height="240pt" viewBox="0 0 300 217" version="1.1">
<g id="surface1">
<path style=" stroke:none;fill-rule:nonzero;fill:rgb(80%,80%,80%);fill-opacity:1;" d="M 299.566406 215.28125 L 0.433594 215.28125 C 0.195312 215.28125 0 215.089844 0 214.847656 C 0 214.609375 0.195312 214.414062 0.433594 214.414062 L 299.566406 214.414062 C 299.804688 214.414062 300 214.609375 300 214.847656 C 300 215.089844 299.804688 215.28125 299.566406 215.28125 Z M 299.566406 215.28125 "/>
<path style=" stroke:none;fill-rule:nonzero;fill:rgb(80%,80%,80%);fill-opacity:1;" d="M 269.957031 139.59375 L 93.945312 139.59375 C 92.390625 139.59375 91.128906 140.855469 91.128906 142.414062 C 91.128906 143.972656 92.390625 145.234375 93.945312 145.234375 L 98.933594 145.234375 L 98.933594 212.722656 C 98.933594 214.28125 100.195312 215.542969 101.75 215.542969 C 103.308594 215.542969 104.570312 214.28125 104.570312 212.722656 L 104.609375 145.234375 L 258.902344 145.234375 L 258.902344 212.722656 C 258.902344 214.28125 260.164062 215.542969 261.722656 215.542969 C 263.277344 215.542969 264.539062 214.28125 264.539062 212.722656 L 264.539062 146.722656 L 265.359375 145.234375 L 269.957031 145.234375 C 271.515625 145.234375 272.777344 143.972656 272.777344 142.414062 C 272.777344 140.855469 271.515625 139.59375 269.957031 139.59375 Z M 269.957031 139.59375 "/>
<path style=" stroke:none;fill-rule:nonzero;fill:rgb(24.705882%,23.921569%,33.72549%);fill-opacity:1;" d="M 191.527344 141.070312 L 138.214844 141.070312 C 136.0625 141.066406 134.320312 139.324219 134.320312 137.171875 L 134.320312 107.785156 C 134.320312 105.632812 136.0625 103.890625 138.214844 103.886719 L 191.527344 103.886719 C 193.679688 103.890625 195.421875 105.632812 195.421875 107.785156 L 195.421875 137.171875 C 195.421875 139.324219 193.679688 141.066406 191.527344 141.070312 Z M 191.527344 141.070312 "/>
<path style=" stroke:none;fill-rule:nonzero;fill:rgb(100%,100%,100%);fill-opacity:1;" d="M 191.527344 106.886719 L 138.214844 106.886719 C 137.71875 106.886719 137.316406 107.289062 137.316406 107.785156 L 137.316406 137.171875 C 137.316406 137.667969 137.71875 138.070312 138.214844 138.070312 L 191.527344 138.070312 C 192.023438 138.070312 192.425781 137.667969 192.425781 137.171875 L 192.425781 107.785156 C 192.425781 107.289062 192.023438 106.886719 191.527344 106.886719 Z M 191.527344 106.886719 "/>
<path style=" stroke:none;fill-rule:nonzero;fill:rgb(18.431373%,18.039216%,25.490196%);fill-opacity:1;" d="M 169.417969 127.691406 C 169.417969 127.691406 163.035156 126.21875 159.527344 128.917969 C 156.015625 131.617188 163.992188 137.753906 163.992188 137.753906 Z M 169.417969 127.691406 "/>
<path style=" stroke:none;fill-rule:nonzero;fill:rgb(62.745098%,38.039216%,41.568627%);fill-opacity:1;" d="M 171.203125 118.882812 C 171.203125 122.210938 168.507812 124.910156 165.183594 124.910156 C 161.859375 124.910156 159.164062 122.210938 159.164062 118.882812 C 159.164062 115.554688 161.859375 112.855469 165.183594 112.855469 C 168.507812 112.855469 171.203125 115.554688 171.203125 118.882812 Z M 171.203125 118.882812 "/>
<path style=" stroke:none;fill-rule:nonzero;fill:rgb(18.431373%,18.039216%,25.490196%);fill-opacity:1;" d="M 160.527344 110.421875 C 161.347656 109.03125 162.875 108.21875 164.484375 108.316406 C 165.3125 108.417969 166.117188 108.644531 166.875 108.984375 L 170.8125 110.523438 C 171.832031 110.921875 172.945312 111.40625 173.386719 112.40625 C 173.796875 113.335938 173.492188 114.410156 173.183594 115.378906 L 171.710938 119.972656 C 171.546875 118.933594 171.265625 117.914062 170.875 116.9375 C 170.476562 115.953125 169.757812 115.132812 168.835938 114.609375 C 167.8125 114.085938 166.609375 114.09375 165.460938 114.152344 C 163.835938 114.230469 162.066406 114.4375 160.914062 115.582031 C 160.300781 116.234375 159.882812 117.046875 159.714844 117.925781 C 159.546875 118.800781 159.464844 119.6875 159.464844 120.578125 C 158.796875 119.433594 158.234375 118.226562 157.785156 116.980469 C 157.417969 116.050781 157.207031 115.066406 157.164062 114.066406 C 157.125 113.058594 157.457031 112.070312 158.101562 111.292969 C 158.765625 110.519531 159.8125 110.1875 160.800781 110.441406 Z M 160.527344 110.421875 "/>
<path style=" stroke:none;fill-rule:nonzero;fill:rgb(42.352941%,38.823529%,100%);fill-opacity:1;" d="M 179.558594 132.917969 C 179.445312 132.503906 179.089844 132.195312 178.660156 132.140625 C 178.648438 132.132812 178.632812 132.121094 178.617188 132.117188 L 169.628906 127.074219 C 169.097656 126.773438 168.421875 126.949219 168.101562 127.46875 L 165.644531 131.453125 L 161.941406 127.746094 L 161.882812 127.6875 C 161.488281 127.292969 160.871094 127.238281 160.417969 127.558594 L 153.03125 132.734375 C 153.019531 132.734375 153.003906 132.742188 152.992188 132.742188 C 152.265625 132.863281 151.71875 133.472656 151.679688 134.210938 L 151.488281 138.070312 L 180.984375 138.070312 Z M 179.558594 132.917969 "/>
<path style=" stroke:none;fill-rule:nonzero;fill:rgb(24.705882%,23.921569%,33.72549%);fill-opacity:1;" d="M 196.023438 137.46875 L 190.332031 137.46875 C 190.332031 137.140625 190.0625 136.871094 189.730469 136.871094 L 187.933594 136.871094 C 187.605469 136.871094 187.335938 137.140625 187.335938 137.46875 L 185.539062 137.46875 C 185.539062 137.140625 185.269531 136.871094 184.941406 136.871094 L 183.140625 136.871094 C 182.8125 136.871094 182.542969 137.140625 182.542969 137.46875 L 180.746094 137.46875 C 180.746094 137.140625 180.476562 136.871094 180.148438 136.871094 L 178.351562 136.871094 C 178.019531 136.871094 177.75 137.140625 177.75 137.46875 L 175.953125 137.46875 C 175.953125 137.140625 175.6875 136.871094 175.355469 136.871094 L 173.558594 136.871094 C 173.226562 136.871094 172.957031 137.140625 172.957031 137.46875 L 171.160156 137.46875 C 171.160156 137.140625 170.894531 136.871094 170.5625 136.871094 L 168.765625 136.871094 C 168.433594 136.871094 168.167969 137.140625 168.167969 137.46875 L 166.367188 137.46875 C 166.367188 137.140625 166.101562 136.871094 165.769531 136.871094 L 163.972656 136.871094 C 163.640625 136.871094 163.375 137.140625 163.375 137.46875 L 161.578125 137.46875 C 161.578125 137.140625 161.308594 136.871094 160.976562 136.871094 L 159.179688 136.871094 C 158.847656 136.871094 158.582031 137.140625 158.582031 137.46875 L 156.785156 137.46875 C 156.785156 137.140625 156.515625 136.871094 156.183594 136.871094 L 154.386719 136.871094 C 154.058594 136.871094 153.789062 137.140625 153.789062 137.46875 L 151.992188 137.46875 C 151.992188 137.140625 151.722656 136.871094 151.394531 136.871094 L 149.59375 136.871094 C 149.265625 136.871094 148.996094 137.140625 148.996094 137.46875 L 147.199219 137.46875 C 147.199219 137.140625 146.929688 136.871094 146.601562 136.871094 L 144.804688 136.871094 C 144.472656 136.871094 144.203125 137.140625 144.203125 137.46875 L 142.40625 137.46875 C 142.40625 137.140625 142.136719 136.871094 141.808594 136.871094 L 140.011719 136.871094 C 139.679688 136.871094 139.410156 137.140625 139.410156 137.46875 L 133.71875 137.46875 C 132.730469 137.472656 131.925781 138.277344 131.925781 139.269531 C 131.925781 140.261719 132.730469 141.066406 133.71875 141.070312 L 196.023438 141.070312 C 197.015625 141.070312 197.820312 140.261719 197.820312 139.269531 C 197.820312 138.277344 197.015625 137.46875 196.023438 137.46875 Z M 196.023438 137.46875 "/>
<path style=" stroke:none;fill-rule:nonzero;fill:rgb(94.901961%,94.901961%,94.901961%);fill-opacity:1;" d="M 124.457031 127.023438 L 124.457031 138.96875 L 94.558594 138.96875 C 92.378906 139.042969 90.328125 137.921875 89.214844 136.042969 C 88.101562 134.164062 88.101562 131.828125 89.214844 129.949219 C 90.328125 128.066406 92.378906 126.945312 94.558594 127.023438 Z M 124.457031 127.023438 "/>
<path style=" stroke:none;fill-rule:nonzero;fill:rgb(42.352941%,38.823529%,100%);fill-opacity:1;" d="M 125.191406 138.875 C 125.191406 139.128906 124.984375 139.335938 124.730469 139.335938 L 94.027344 139.335938 C 90.554688 139.335938 87.738281 136.519531 87.738281 133.042969 C 87.738281 129.566406 90.554688 126.746094 94.027344 126.746094 L 124.730469 126.746094 C 124.984375 126.746094 125.191406 126.953125 125.191406 127.207031 C 125.191406 127.460938 124.984375 127.664062 124.730469 127.664062 L 94.027344 127.664062 C 91.0625 127.667969 88.660156 130.074219 88.660156 133.042969 C 88.660156 136.007812 91.0625 138.414062 94.027344 138.417969 L 124.730469 138.417969 C 124.984375 138.417969 125.191406 138.621094 125.191406 138.875 Z M 125.191406 138.875 "/>
<path style=" stroke:none;fill-rule:nonzero;fill:rgb(80%,80%,80%);fill-opacity:1;" d="M 124.457031 129.777344 L 92.328125 129.777344 C 92.296875 129.78125 92.265625 129.761719 92.25 129.734375 C 92.230469 129.703125 92.230469 129.667969 92.25 129.640625 C 92.265625 129.613281 92.296875 129.59375 92.328125 129.59375 L 124.457031 129.59375 C 124.507812 129.597656 124.546875 129.636719 124.546875 129.6875 C 124.546875 129.738281 124.507812 129.777344 124.457031 129.777344 Z M 124.457031 129.777344 "/>
<path style=" stroke:none;fill-rule:nonzero;fill:rgb(80%,80%,80%);fill-opacity:1;" d="M 124.457031 131.984375 L 92.328125 131.984375 C 92.296875 131.984375 92.265625 131.96875 92.25 131.9375 C 92.230469 131.910156 92.230469 131.875 92.25 131.847656 C 92.265625 131.816406 92.296875 131.800781 92.328125 131.800781 L 124.457031 131.800781 C 124.507812 131.800781 124.546875 131.84375 124.546875 131.894531 C 124.546875 131.941406 124.507812 131.984375 124.457031 131.984375 Z M 124.457031 131.984375 "/>
<path style=" stroke:none;fill-rule:nonzero;fill:rgb(80%,80%,80%);fill-opacity:1;" d="M 124.457031 134.191406 L 92.328125 134.191406 C 92.296875 134.191406 92.265625 134.171875 92.25 134.144531 C 92.230469 134.117188 92.230469 134.082031 92.25 134.050781 C 92.265625 134.023438 92.296875 134.007812 92.328125 134.007812 L 124.457031 134.007812 C 124.507812 134.007812 124.546875 134.046875 124.546875 134.097656 C 124.546875 134.148438 124.507812 134.191406 124.457031 134.191406 Z M 124.457031 134.191406 "/>
<path style=" stroke:none;fill-rule:nonzero;fill:rgb(80%,80%,80%);fill-opacity:1;" d="M 124.457031 136.394531 L 92.328125 136.394531 C 92.296875 136.394531 92.265625 136.378906 92.25 136.351562 C 92.230469 136.320312 92.230469 136.285156 92.25 136.257812 C 92.265625 136.230469 92.296875 136.210938 92.328125 136.210938 L 124.457031 136.210938 C 124.507812 136.210938 124.546875 136.253906 124.546875 136.304688 C 124.546875 136.355469 124.507812 136.394531 124.457031 136.394531 Z M 124.457031 136.394531 "/>
<path style=" stroke:none;fill-rule:nonzero;fill:rgb(94.901961%,94.901961%,94.901961%);fill-opacity:1;" d="M 118.820312 114.4375 L 118.820312 126.382812 L 88.921875 126.382812 C 86.742188 126.457031 84.695312 125.335938 83.582031 123.457031 C 82.46875 121.578125 82.46875 119.242188 83.582031 117.359375 C 84.695312 115.480469 86.742188 114.359375 88.921875 114.4375 Z M 118.820312 114.4375 "/>
<path style=" stroke:none;fill-rule:nonzero;fill:rgb(24.705882%,23.921569%,33.72549%);fill-opacity:1;" d="M 119.554688 126.289062 C 119.554688 126.542969 119.347656 126.75 119.097656 126.75 L 88.390625 126.75 C 84.917969 126.75 82.101562 123.933594 82.101562 120.457031 C 82.101562 116.980469 84.917969 114.160156 88.390625 114.160156 L 119.097656 114.160156 C 119.347656 114.160156 119.554688 114.367188 119.554688 114.621094 C 119.554688 114.875 119.347656 115.078125 119.097656 115.078125 L 88.390625 115.078125 C 85.425781 115.082031 83.027344 117.488281 83.027344 120.457031 C 83.027344 123.421875 85.425781 125.828125 88.390625 125.832031 L 119.097656 125.832031 C 119.347656 125.832031 119.554688 126.035156 119.554688 126.289062 Z M 119.554688 126.289062 "/>
<path style=" stroke:none;fill-rule:nonzero;fill:rgb(80%,80%,80%);fill-opacity:1;" d="M 118.820312 117.191406 L 86.691406 117.191406 C 86.660156 117.195312 86.628906 117.175781 86.613281 117.148438 C 86.597656 117.117188 86.597656 117.082031 86.613281 117.054688 C 86.628906 117.027344 86.660156 117.007812 86.691406 117.007812 L 118.820312 117.007812 C 118.871094 117.007812 118.910156 117.050781 118.910156 117.101562 C 118.910156 117.152344 118.871094 117.191406 118.820312 117.191406 Z M 118.820312 117.191406 "/>
<path style=" stroke:none;fill-rule:nonzero;fill:rgb(80%,80%,80%);fill-opacity:1;" d="M 118.820312 119.398438 L 86.691406 119.398438 C 86.660156 119.398438 86.628906 119.382812 86.613281 119.351562 C 86.597656 119.324219 86.597656 119.289062 86.613281 119.261719 C 86.628906 119.230469 86.660156 119.214844 86.691406 119.214844 L 118.820312 119.214844 C 118.871094 119.214844 118.910156 119.257812 118.910156 119.308594 C 118.910156 119.355469 118.871094 119.398438 118.820312 119.398438 Z M 118.820312 119.398438 "/>
<path style=" stroke:none;fill-rule:nonzero;fill:rgb(80%,80%,80%);fill-opacity:1;" d="M 118.820312 121.605469 L 86.691406 121.605469 C 86.660156 121.605469 86.628906 121.585938 86.613281 121.558594 C 86.597656 121.53125 86.597656 121.496094 86.613281 121.464844 C 86.628906 121.4375 86.660156 121.421875 86.691406 121.421875 L 118.820312 121.421875 C 118.871094 121.421875 118.910156 121.460938 118.910156 121.511719 C 118.910156 121.5625 118.871094 121.605469 118.820312 121.605469 Z M 118.820312 121.605469 "/>
<path style=" stroke:none;fill-rule:nonzero;fill:rgb(80%,80%,80%);fill-opacity:1;" d="M 118.820312 123.808594 L 86.691406 123.808594 C 86.660156 123.808594 86.628906 123.792969 86.613281 123.765625 C 86.597656 123.734375 86.597656 123.699219 86.613281 123.671875 C 86.628906 123.644531 86.660156 123.625 86.691406 123.625 L 118.820312 123.625 C 118.871094 123.625 118.910156 123.667969 118.910156 123.71875 C 118.910156 123.769531 118.871094 123.808594 118.820312 123.808594 Z M 118.820312 123.808594 "/>
<path style=" stroke:none;fill-rule:nonzero;fill:rgb(80%,80%,80%);fill-opacity:1;" d="M 153.601562 181.429688 L 153.601562 171.015625 C 153.601562 170.054688 152.824219 169.277344 151.867188 169.277344 L 112.414062 169.277344 C 111.457031 169.277344 110.679688 170.054688 110.679688 171.015625 L 110.679688 181.429688 Z M 153.601562 181.429688 "/>
<path style=" stroke:none;fill-rule:nonzero;fill:rgb(80%,80%,80%);fill-opacity:1;" d="M 110.679688 185.335938 L 153.601562 185.335938 L 153.601562 198.789062 L 110.679688 198.789062 Z M 110.679688 185.335938 "/>
<path style=" stroke:none;fill-rule:nonzero;fill:rgb(80%,80%,80%);fill-opacity:1;" d="M 110.679688 202.695312 L 110.679688 213.113281 C 110.679688 214.070312 111.457031 214.847656 112.414062 214.847656 L 151.867188 214.847656 C 152.824219 214.847656 153.601562 214.070312 153.601562 213.113281 L 153.601562 202.695312 Z M 110.679688 202.695312 "/>
<path style=" stroke:none;fill-rule:nonzero;fill:rgb(100%,100%,100%);fill-opacity:1;" d="M 133.222656 175.789062 C 133.222656 176.507812 132.640625 177.089844 131.921875 177.089844 C 131.203125 177.089844 130.621094 176.507812 130.621094 175.789062 C 130.621094 175.070312 131.203125 174.488281 131.921875 174.488281 C 132.640625 174.488281 133.222656 175.070312 133.222656 175.789062 Z M 133.222656 175.789062 "/>
<path style=" stroke:none;fill-rule:nonzero;fill:rgb(100%,100%,100%);fill-opacity:1;" d="M 133.222656 193.148438 C 133.222656 193.867188 132.640625 194.449219 131.921875 194.449219 C 131.203125 194.449219 130.621094 193.867188 130.621094 193.148438 C 130.621094 192.429688 131.203125 191.847656 131.921875 191.847656 C 132.640625 191.847656 133.222656 192.429688 133.222656 193.148438 Z M 133.222656 193.148438 "/>
<path style=" stroke:none;fill-rule:nonzero;fill:rgb(100%,100%,100%);fill-opacity:1;" d="M 133.292969 210.140625 C 133.292969 210.859375 132.710938 211.441406 131.992188 211.441406 C 131.273438 211.441406 130.691406 210.859375 130.691406 210.140625 C 130.691406 209.421875 131.273438 208.839844 131.992188 208.839844 C 132.710938 208.839844 133.292969 209.421875 133.292969 210.140625 Z M 133.292969 210.140625 "/>
<path style=" stroke:none;fill-rule:nonzero;fill:rgb(94.901961%,94.901961%,94.901961%);fill-opacity:1;" d="M 148.734375 157.402344 L 148.734375 169.347656 L 118.835938 169.347656 C 116.65625 169.425781 114.605469 168.304688 113.492188 166.421875 C 112.378906 164.542969 112.378906 162.207031 113.492188 160.328125 C 114.605469 158.449219 116.65625 157.328125 118.835938 157.402344 Z M 148.734375 157.402344 "/>
<path style=" stroke:none;fill-rule:nonzero;fill:rgb(24.705882%,23.921569%,33.72549%);fill-opacity:1;" d="M 149.46875 169.257812 C 149.46875 169.511719 149.261719 169.714844 149.007812 169.714844 L 118.304688 169.714844 C 114.828125 169.71875 112.011719 166.898438 112.011719 163.421875 C 112.011719 159.941406 114.828125 157.125 118.304688 157.125 L 149.007812 157.125 C 149.261719 157.125 149.46875 157.332031 149.46875 157.585938 C 149.46875 157.839844 149.261719 158.046875 149.007812 158.046875 L 118.304688 158.046875 C 115.339844 158.046875 112.9375 160.453125 112.9375 163.421875 C 112.9375 166.386719 115.339844 168.792969 118.304688 168.796875 L 149.007812 168.796875 C 149.261719 168.796875 149.46875 169.003906 149.46875 169.257812 Z M 149.46875 169.257812 "/>
<path style=" stroke:none;fill-rule:nonzero;fill:rgb(80%,80%,80%);fill-opacity:1;" d="M 148.734375 160.160156 L 116.605469 160.160156 C 116.574219 160.160156 116.542969 160.140625 116.527344 160.113281 C 116.507812 160.085938 116.507812 160.050781 116.527344 160.019531 C 116.542969 159.992188 116.574219 159.976562 116.605469 159.976562 L 148.734375 159.976562 C 148.785156 159.976562 148.824219 160.015625 148.824219 160.066406 C 148.824219 160.117188 148.785156 160.160156 148.734375 160.160156 Z M 148.734375 160.160156 "/>
<path style=" stroke:none;fill-rule:nonzero;fill:rgb(80%,80%,80%);fill-opacity:1;" d="M 148.734375 162.363281 L 116.605469 162.363281 C 116.574219 162.363281 116.542969 162.347656 116.527344 162.320312 C 116.507812 162.289062 116.507812 162.253906 116.527344 162.226562 C 116.542969 162.199219 116.574219 162.179688 116.605469 162.179688 L 148.734375 162.179688 C 148.785156 162.179688 148.824219 162.222656 148.824219 162.273438 C 148.824219 162.324219 148.785156 162.363281 148.734375 162.363281 Z M 148.734375 162.363281 "/>
<path style=" stroke:none;fill-rule:nonzero;fill:rgb(80%,80%,80%);fill-opacity:1;" d="M 148.734375 164.570312 L 116.605469 164.570312 C 116.574219 164.570312 116.542969 164.554688 116.527344 164.523438 C 116.507812 164.496094 116.507812 164.460938 116.527344 164.433594 C 116.542969 164.402344 116.574219 164.386719 116.605469 164.386719 L 148.734375 164.386719 C 148.785156 164.386719 148.824219 164.425781 148.824219 164.476562 C 148.824219 164.527344 148.785156 164.570312 148.734375 164.570312 Z M 148.734375 164.570312 "/>
<path style=" stroke:none;fill-rule:nonzero;fill:rgb(80%,80%,80%);fill-opacity:1;" d="M 148.734375 166.777344 L 116.605469 166.777344 C 116.574219 166.777344 116.542969 166.757812 116.527344 166.730469 C 116.507812 166.703125 116.507812 166.664062 116.527344 166.636719 C 116.542969 166.609375 116.574219 166.589844 116.605469 166.589844 L 148.734375 166.589844 C 148.785156 166.59375 148.824219 166.632812 148.824219 166.683594 C 148.824219 166.734375 148.785156 166.773438 148.734375 166.777344 Z M 148.734375 166.777344 "/>
<path style=" stroke:none;fill-rule:nonzero;fill:rgb(90.196078%,90.196078%,90.196078%);fill-opacity:1;" d="M 108.429688 79.429688 L 108.429688 3.265625 C 108.429688 1.460938 109.890625 0.00390625 111.691406 0 L 171.832031 0 C 173.632812 0.00390625 175.089844 1.460938 175.09375 3.265625 L 175.09375 79.429688 C 175.089844 81.234375 173.632812 82.695312 171.832031 82.695312 L 111.691406 82.695312 C 109.890625 82.695312 108.429688 81.234375 108.429688 79.429688 Z M 111.691406 0.726562 C 110.289062 0.726562 109.15625 1.863281 109.152344 3.265625 L 109.152344 79.429688 C 109.15625 80.832031 110.289062 81.96875 111.691406 81.96875 L 171.832031 81.96875 C 173.234375 81.96875 174.367188 80.832031 174.367188 79.429688 L 174.367188 3.265625 C 174.367188 1.863281 173.234375 0.726562 171.832031 0.726562 Z M 111.691406 0.726562 "/>
<path style=" stroke:none;fill-rule:nonzero;fill:rgb(42.352941%,38.823529%,100%);fill-opacity:1;" d="M 145.132812 34.980469 L 145.132812 19.339844 C 145.136719 18.4375 145.863281 17.707031 146.765625 17.707031 L 160.003906 17.707031 C 160.902344 17.707031 161.632812 18.4375 161.632812 19.339844 L 161.632812 34.980469 C 161.632812 35.878906 160.902344 36.609375 160.003906 36.613281 L 146.765625 36.613281 C 145.863281 36.609375 145.136719 35.878906 145.132812 34.980469 Z M 145.132812 34.980469 "/>
<path style=" stroke:none;fill-rule:nonzero;fill:rgb(80%,80%,80%);fill-opacity:1;" d="M 119.410156 42.234375 L 119.410156 26.59375 C 119.410156 25.691406 120.140625 24.960938 121.039062 24.960938 L 134.277344 24.960938 C 135.179688 24.960938 135.910156 25.691406 135.910156 26.59375 L 135.910156 42.234375 C 135.910156 43.132812 135.179688 43.863281 134.277344 43.867188 L 121.039062 43.867188 C 120.140625 43.863281 119.410156 43.132812 119.410156 42.234375 Z M 119.410156 42.234375 "/>
<path style=" stroke:none;fill-rule:nonzero;fill:rgb(100%,39.607843%,51.764706%);fill-opacity:1;" d="M 140.0625 64.359375 L 140.0625 48.71875 C 140.0625 47.816406 140.792969 47.085938 141.691406 47.085938 L 154.929688 47.085938 C 155.832031 47.085938 156.558594 47.816406 156.5625 48.71875 L 156.5625 64.359375 C 156.558594 65.257812 155.832031 65.988281 154.929688 65.992188 L 141.691406 65.992188 C 140.792969 65.988281 140.0625 65.257812 140.0625 64.359375 Z M 140.0625 64.359375 "/>
<path style=" stroke:none;fill-rule:nonzero;fill:rgb(24.705882%,23.921569%,33.72549%);fill-opacity:1;" d="M 219.175781 135.859375 L 205.554688 135.859375 C 205.425781 135.859375 205.296875 135.890625 205.179688 135.949219 L 201.742188 137.671875 C 201.511719 137.769531 201.359375 137.996094 201.359375 138.246094 C 201.359375 138.5 201.511719 138.726562 201.742188 138.824219 L 205.179688 140.546875 C 205.296875 140.605469 205.425781 140.636719 205.554688 140.632812 L 219.175781 140.632812 C 219.566406 140.65625 219.902344 140.363281 219.929688 139.96875 L 219.929688 136.523438 C 219.902344 136.132812 219.566406 135.839844 219.175781 135.859375 Z M 219.175781 135.859375 "/>
<path style=" stroke:none;fill-rule:nonzero;fill:rgb(42.352941%,38.823529%,100%);fill-opacity:1;" d="M 219.929688 136.523438 L 219.929688 139.96875 C 219.902344 140.363281 219.566406 140.65625 219.175781 140.632812 L 216.460938 140.632812 L 216.460938 135.859375 L 219.175781 135.859375 C 219.566406 135.839844 219.902344 136.132812 219.929688 136.523438 Z M 219.929688 136.523438 "/>
<path style=" stroke:none;fill-rule:nonzero;fill:rgb(100%,72.156863%,72.156863%);fill-opacity:1;" d="M 219.070312 110.082031 C 220.320312 109.542969 221.738281 109.5625 222.972656 110.132812 C 224.203125 110.707031 225.132812 111.78125 225.527344 113.082031 C 225.589844 113.285156 225.632812 113.496094 225.667969 113.703125 L 244.714844 123.160156 L 249.121094 120.234375 L 254.609375 126.558594 L 247.875 132.03125 C 246.214844 133.371094 243.871094 133.460938 242.109375 132.253906 L 222.785156 118.875 C 222.640625 118.933594 222.492188 118.988281 222.34375 119.035156 C 221.042969 119.429688 219.636719 119.246094 218.476562 118.539062 C 217.316406 117.828125 216.515625 116.65625 216.269531 115.320312 C 216.234375 115.125 216.210938 114.933594 216.199219 114.738281 C 216.089844 112.738281 217.234375 110.878906 219.070312 110.082031 Z M 219.070312 110.082031 "/>
<path style=" stroke:none;fill-rule:nonzero;fill:rgb(24.705882%,23.921569%,33.72549%);fill-opacity:1;" d="M 258.746094 168.300781 L 237.933594 168.300781 C 237.933594 168.902344 216.480469 169.386719 216.480469 169.386719 C 216.144531 169.640625 215.839844 169.929688 215.566406 170.253906 C 214.753906 171.226562 214.308594 172.457031 214.308594 173.726562 L 214.308594 174.59375 C 214.3125 177.589844 216.738281 180.019531 219.730469 180.019531 L 258.746094 180.019531 C 261.738281 180.015625 264.164062 177.589844 264.164062 174.59375 L 264.164062 173.726562 C 264.160156 170.730469 261.738281 168.304688 258.746094 168.300781 Z M 258.746094 168.300781 "/>
<path style=" stroke:none;fill-rule:nonzero;fill:rgb(24.705882%,23.921569%,33.72549%);fill-opacity:1;" d="M 241.742188 216.261719 L 236.105469 216.261719 L 236.105469 179.804688 L 241.742188 179.804688 Z M 241.742188 216.261719 "/>
<path style=" stroke:none;fill-rule:nonzero;fill:rgb(24.705882%,23.921569%,33.72549%);fill-opacity:1;" d="M 220.066406 216.0625 C 220.066406 216.671875 228.605469 216.296875 239.140625 216.296875 C 249.675781 216.296875 258.214844 216.671875 258.214844 216.0625 C 258.214844 215.453125 249.675781 210.617188 239.140625 210.617188 C 228.605469 210.617188 220.066406 215.453125 220.066406 216.0625 Z M 220.066406 216.0625 "/>
<path style=" stroke:none;fill-rule:nonzero;fill:rgb(100%,72.156863%,72.156863%);fill-opacity:1;" d="M 225.152344 211.789062 L 219.839844 211.789062 L 217.308594 197.988281 L 225.152344 197.988281 Z M 225.152344 211.789062 "/>
<path style=" stroke:none;fill-rule:nonzero;fill:rgb(18.431373%,18.039216%,25.490196%);fill-opacity:1;" d="M 226.507812 216.945312 L 209.371094 216.945312 L 209.371094 216.730469 C 209.371094 213.039062 212.359375 210.050781 216.042969 210.050781 L 226.507812 210.050781 Z M 226.507812 216.945312 "/>
<path style=" stroke:none;fill-rule:nonzero;fill:rgb(18.431373%,18.039216%,25.490196%);fill-opacity:1;" d="M 217.203125 203.230469 L 206.609375 179.445312 C 204.773438 175.289062 206.4375 170.417969 210.429688 168.253906 L 233.414062 155.917969 L 243.902344 155.023438 L 253.574219 154.144531 L 253.644531 154.261719 C 253.734375 154.414062 255.8125 158.007812 254.410156 161.953125 C 253.339844 164.945312 250.566406 167.28125 246.164062 168.898438 C 235.882812 172.671875 224.007812 175.898438 219.378906 177.109375 C 218.964844 177.214844 218.613281 177.492188 218.417969 177.871094 C 218.222656 178.246094 218.191406 178.6875 218.332031 179.085938 L 228.175781 201.226562 C 228.386719 201.796875 228.316406 202.429688 227.996094 202.941406 C 227.671875 203.453125 227.128906 203.789062 226.527344 203.84375 L 219.171875 204.378906 C 219.109375 204.386719 219.046875 204.390625 218.984375 204.390625 C 218.214844 204.386719 217.515625 203.933594 217.203125 203.230469 Z M 217.203125 203.230469 "/>
<path style=" stroke:none;fill-rule:nonzero;fill:rgb(100%,72.156863%,72.156863%);fill-opacity:1;" d="M 227.753906 211.789062 L 222.441406 211.789062 L 219.910156 197.988281 L 227.753906 197.988281 Z M 227.753906 211.789062 "/>
<path style=" stroke:none;fill-rule:nonzero;fill:rgb(18.431373%,18.039216%,25.490196%);fill-opacity:1;" d="M 229.109375 216.945312 L 211.972656 216.945312 L 211.972656 216.730469 C 211.972656 213.039062 214.957031 210.050781 218.644531 210.050781 L 229.109375 210.050781 Z M 229.109375 216.945312 "/>
<path style=" stroke:none;fill-rule:nonzero;fill:rgb(18.431373%,18.039216%,25.490196%);fill-opacity:1;" d="M 220.238281 204.535156 L 209.644531 180.746094 C 207.808594 176.589844 209.472656 171.71875 213.464844 169.554688 L 236.449219 157.21875 L 246.9375 156.324219 L 256.609375 155.445312 L 256.679688 155.5625 C 256.769531 155.714844 258.847656 159.3125 257.441406 163.253906 C 256.375 166.246094 253.601562 168.582031 249.199219 170.199219 C 238.917969 173.972656 227.039062 177.199219 222.410156 178.410156 C 221.996094 178.515625 221.648438 178.792969 221.453125 179.175781 C 221.257812 179.550781 221.226562 179.988281 221.367188 180.390625 L 231.210938 202.527344 C 231.421875 203.097656 231.351562 203.730469 231.03125 204.246094 C 230.707031 204.757812 230.164062 205.089844 229.558594 205.144531 L 222.203125 205.683594 C 222.144531 205.6875 222.082031 205.691406 222.019531 205.691406 C 221.25 205.691406 220.550781 205.238281 220.238281 204.535156 Z M 220.238281 204.535156 "/>
<path style=" stroke:none;fill-rule:nonzero;fill:rgb(80%,80%,80%);fill-opacity:1;" d="M 214.957031 131.867188 C 210.503906 125.9375 206.984375 119.363281 204.519531 112.367188 C 204.226562 111.503906 204.597656 110.554688 205.402344 110.121094 L 220.636719 101.949219 C 221.136719 101.675781 221.734375 101.652344 222.253906 101.882812 C 222.78125 102.113281 223.175781 102.574219 223.320312 103.132812 C 225.09375 109.875 228.425781 116.101562 233.050781 121.3125 C 233.4375 121.742188 233.601562 122.328125 233.5 122.894531 C 233.402344 123.457031 233.050781 123.941406 232.550781 124.207031 L 217.316406 132.378906 C 216.507812 132.808594 215.511719 132.59375 214.957031 131.867188 Z M 214.957031 131.867188 "/>
<path style=" stroke:none;fill-rule:nonzero;fill:rgb(100%,100%,100%);fill-opacity:1;" d="M 215.996094 131.085938 C 216.164062 131.296875 216.460938 131.359375 216.699219 131.230469 L 231.9375 123.058594 C 232.085938 122.980469 232.191406 122.835938 232.21875 122.667969 C 232.25 122.492188 232.199219 122.3125 232.078125 122.179688 C 227.320312 116.816406 223.886719 110.402344 222.0625 103.464844 C 222.019531 103.289062 221.898438 103.144531 221.734375 103.074219 C 221.578125 103.003906 221.398438 103.011719 221.25 103.09375 L 206.015625 111.269531 C 205.777344 111.398438 205.664062 111.675781 205.746094 111.933594 C 208.167969 118.804688 211.625 125.261719 215.996094 131.085938 Z M 215.996094 131.085938 "/>
<path style=" stroke:none;fill-rule:nonzero;fill:rgb(42.352941%,38.823529%,100%);fill-opacity:1;" d="M 265.574219 129.6875 L 253.640625 134.226562 L 250.730469 126.125 C 249.929688 123.90625 250.847656 121.429688 252.898438 120.265625 C 254.972656 119.089844 257.597656 119.601562 259.082031 121.476562 Z M 265.574219 129.6875 "/>
<path style=" stroke:none;fill-rule:nonzero;fill:rgb(42.352941%,38.823529%,100%);fill-opacity:1;" d="M 235.222656 161.785156 C 234.714844 161.425781 234.386719 160.867188 234.320312 160.246094 C 232.792969 145.964844 233.855469 134.785156 237.574219 126.074219 C 238.902344 123.03125 241.546875 120.765625 244.757812 119.921875 L 254.402344 119.433594 L 254.453125 119.457031 C 258.921875 121.648438 261.425781 126.515625 260.617188 131.433594 C 257.515625 139.617188 254.917969 148.140625 256.898438 155.019531 C 257.066406 155.597656 256.988281 156.222656 256.6875 156.746094 C 256.394531 157.253906 255.90625 157.617188 255.335938 157.75 L 236.964844 162.125 C 236.363281 162.269531 235.730469 162.144531 235.222656 161.785156 Z M 235.222656 161.785156 "/>
<path style=" stroke:none;fill-rule:nonzero;fill:rgb(100%,72.156863%,72.156863%);fill-opacity:1;" d="M 261.832031 105.167969 C 261.832031 111.054688 257.0625 115.828125 251.183594 115.828125 C 245.300781 115.828125 240.535156 111.054688 240.535156 105.167969 C 240.535156 99.28125 245.300781 94.507812 251.183594 94.507812 C 257.0625 94.507812 261.832031 99.28125 261.832031 105.167969 Z M 261.832031 105.167969 "/>
<path style=" stroke:none;fill-rule:nonzero;fill:rgb(80%,80%,80%);fill-opacity:1;" d="M 221.636719 113.609375 L 213.339844 117.277344 C 212.683594 117.566406 211.914062 117.269531 211.625 116.613281 L 211.417969 116.148438 C 211.128906 115.488281 211.425781 114.722656 212.082031 114.429688 L 220.382812 110.761719 C 221.039062 110.472656 221.804688 110.769531 222.097656 111.429688 L 222.300781 111.894531 C 222.589844 112.550781 222.292969 113.320312 221.636719 113.609375 Z M 221.636719 113.609375 "/>
<path style=" stroke:none;fill-rule:nonzero;fill:rgb(80%,80%,80%);fill-opacity:1;" d="M 224.671875 119.253906 L 216.375 122.921875 C 215.714844 123.210938 214.949219 122.910156 214.660156 122.253906 L 214.453125 121.789062 C 214.164062 121.132812 214.460938 120.363281 215.117188 120.074219 L 223.417969 116.40625 C 224.074219 116.117188 224.839844 116.414062 225.132812 117.070312 L 225.335938 117.535156 C 225.625 118.195312 225.328125 118.960938 224.671875 119.253906 Z M 224.671875 119.253906 "/>
<path style=" stroke:none;fill-rule:nonzero;fill:rgb(100%,72.156863%,72.156863%);fill-opacity:1;" d="M 231.070312 141.289062 L 212.570312 126.679688 C 212.421875 126.730469 212.273438 126.773438 212.121094 126.8125 C 210.800781 127.121094 209.410156 126.855469 208.300781 126.078125 C 207.179688 125.300781 206.449219 124.078125 206.292969 122.722656 C 206.039062 120.515625 207.332031 118.425781 209.417969 117.671875 C 210.699219 117.210938 212.113281 117.320312 213.304688 117.96875 C 214.5 118.617188 215.363281 119.746094 215.671875 121.070312 C 215.71875 121.28125 215.753906 121.488281 215.773438 121.703125 L 234.1875 132.339844 L 238.773438 129.695312 L 243.847656 136.351562 L 236.734375 141.429688 C 235.023438 142.640625 232.722656 142.582031 231.070312 141.289062 Z M 231.070312 141.289062 "/>
<path style=" stroke:none;fill-rule:nonzero;fill:rgb(42.352941%,38.823529%,100%);fill-opacity:1;" d="M 246.105469 138.421875 L 235.550781 131.238281 L 240.511719 124.203125 C 241.871094 122.273438 244.421875 121.609375 246.550781 122.625 C 248.703125 123.652344 249.789062 126.097656 249.105469 128.386719 Z M 246.105469 138.421875 "/>
<path style=" stroke:none;fill-rule:nonzero;fill:rgb(18.431373%,18.039216%,25.490196%);fill-opacity:1;" d="M 247.28125 103.582031 C 244.542969 105.457031 240.949219 107.382812 238.152344 105.386719 C 236.320312 104.074219 235.742188 101.648438 236.484375 99.515625 C 237.824219 95.683594 241.5 94 245.015625 92.707031 C 249.589844 91.023438 254.566406 89.6875 259.285156 90.890625 C 264.003906 92.09375 268.175781 96.667969 267.324219 101.46875 C 266.636719 105.328125 263 108.539062 263.515625 112.425781 C 264.035156 116.339844 268.429688 118.398438 272.308594 119.097656 C 276.1875 119.796875 280.527344 120.019531 283.316406 122.808594 C 286.871094 126.367188 285.984375 132.726562 282.636719 136.484375 C 279.292969 140.242188 274.242188 141.945312 269.347656 143.101562 C 262.867188 144.636719 255.855469 145.441406 249.695312 142.894531 C 243.539062 140.351562 238.746094 133.496094 240.53125 127.074219 C 241.285156 124.359375 243.058594 122.066406 244.773438 119.832031 C 246.492188 117.597656 248.226562 115.261719 248.882812 112.523438 C 249.425781 110.238281 249.023438 107.589844 247.511719 105.875 C 246.945312 105.261719 246.84375 104.351562 247.253906 103.625 Z M 247.28125 103.582031 "/>
<path style=" stroke:none;fill-rule:nonzero;fill:rgb(90.196078%,90.196078%,90.196078%);fill-opacity:1;" d="M 47.285156 155.371094 C 41.707031 157.335938 35.507812 156.242188 30.933594 152.488281 C 25.203125 147.675781 23.410156 139.746094 21.949219 132.402344 C 20.507812 125.164062 19.066406 117.925781 17.625 110.6875 L 26.675781 116.925781 C 33.179688 121.410156 39.835938 126.039062 44.339844 132.539062 C 48.847656 139.035156 50.8125 147.902344 47.191406 154.933594 "/>
<path style=" stroke:none;fill-rule:nonzero;fill:rgb(94.901961%,94.901961%,94.901961%);fill-opacity:1;" d="M 46.511719 181.664062 C 47.429688 174.984375 48.371094 168.21875 47.726562 161.46875 C 47.15625 155.476562 45.328125 149.621094 41.609375 144.820312 C 39.636719 142.277344 37.234375 140.097656 34.511719 138.382812 C 33.800781 137.933594 33.148438 139.058594 33.855469 139.503906 C 38.566406 142.484375 42.210938 146.886719 44.261719 152.074219 C 46.523438 157.839844 46.890625 164.128906 46.5 170.253906 C 46.261719 173.960938 45.761719 177.640625 45.257812 181.316406 C 45.175781 181.660156 45.375 182.011719 45.710938 182.117188 C 46.058594 182.210938 46.414062 182.007812 46.511719 181.664062 Z M 46.511719 181.664062 "/>
<path style=" stroke:none;fill-rule:nonzero;fill:rgb(90.196078%,90.196078%,90.196078%);fill-opacity:1;" d="M 37.691406 169.84375 C 35.296875 173.488281 31.179688 175.613281 26.828125 175.457031 C 21.332031 175.195312 16.746094 171.355469 12.621094 167.707031 L 0.414062 156.917969 L 8.492188 156.53125 C 14.300781 156.253906 20.261719 155.992188 25.792969 157.789062 C 31.328125 159.582031 36.429688 163.898438 37.441406 169.628906 "/>
<path style=" stroke:none;fill-rule:nonzero;fill:rgb(94.901961%,94.901961%,94.901961%);fill-opacity:1;" d="M 49.101562 185.5 C 44.691406 177.691406 39.578125 169.015625 30.445312 166.242188 C 27.902344 165.472656 25.238281 165.199219 22.597656 165.429688 C 21.761719 165.503906 21.972656 166.789062 22.804688 166.714844 C 27.234375 166.347656 31.65625 167.519531 35.324219 170.03125 C 38.855469 172.4375 41.605469 175.785156 43.933594 179.332031 C 45.359375 181.503906 46.636719 183.769531 47.914062 186.03125 C 48.320312 186.753906 49.511719 186.234375 49.101562 185.5 Z M 49.101562 185.5 "/>
<path style=" stroke:none;fill-rule:nonzero;fill:rgb(94.901961%,94.901961%,94.901961%);fill-opacity:1;" d="M 56.164062 193.71875 C 55.859375 190.207031 53.628906 187.15625 50.378906 185.804688 L 50.378906 181.292969 L 42.816406 181.292969 L 42.816406 185.949219 C 39.726562 187.363281 37.640625 190.332031 37.347656 193.71875 L 35.566406 214.414062 L 57.941406 214.414062 Z M 56.164062 193.71875 "/>
</g>
</svg>
